<svg xmlns="http://www.w3.org/2000/svg" viewBox="0 0 640 360" role="img" aria-labelledby="title desc">
  <title id="title">Askareet</title>
  <desc id="desc">Cleaning supplies illustration for household chores.</desc>
  <defs>
    <linearGradient id="bg" x1="0" y1="0" x2="1" y2="1">
      <stop offset="0" stop-color="#402314"/>
      <stop offset="1" stop-color="#03b7e5"/>
    </linearGradient>
  </defs>
  <rect width="640" height="360" fill="url(#bg)"/>
  <circle cx="504" cy="88" r="112" fill="#ffffff" opacity=".11"/>
  <circle cx="102" cy="296" r="116" fill="#000000" opacity=".18"/>
  <path d="M196 126h114v154c0 20-16 36-36 36h-42c-20 0-36-16-36-36Z" fill="#f4fcff"/>
  <path d="M218 86h70c12 0 22 10 22 22v30H196v-30c0-12 10-22 22-22Z" fill="#0a5067"/>
  <path d="M214 174h78" stroke="#03b7e5" stroke-width="16" stroke-linecap="round"/>
  <path d="M390 76l68 24-72 206-68-24Z" fill="#f4fcff"/>
  <path d="M390 76l68 24-16 46-68-24Z" fill="#f16d6d"/>
  <path d="M330 282l68 24-18 38-98-34Z" fill="#083444"/>
  <path d="M480 206c46 12 78 42 88 90" stroke="#ffffff" stroke-width="16" stroke-linecap="round" opacity=".75"/>
  <path d="M124 122c32 14 62 10 90-12" stroke="#ffffff" stroke-width="14" stroke-linecap="round" opacity=".7"/>
  <text x="404" y="332" fill="#ffffff" font-family="Inter, Arial, sans-serif" font-size="32" font-weight="700">SIIVOUS</text>
</svg>
