<svg xmlns="http://www.w3.org/2000/svg" viewBox="0 0 640 360" role="img" aria-labelledby="title desc">
  <title id="title">Ateriat ja reseptit</title>
  <desc id="desc">Recipe book and ingredients illustration.</desc>
  <defs>
    <linearGradient id="bg" x1="0" y1="0" x2="1" y2="1">
      <stop offset="0" stop-color="#22133f"/>
      <stop offset="1" stop-color="#03b7e5"/>
    </linearGradient>
    <linearGradient id="book" x1="0" y1="0" x2="1" y2="1">
      <stop offset="0" stop-color="#ffffff"/>
      <stop offset="1" stop-color="#e9fbff"/>
    </linearGradient>
  </defs>
  <rect width="640" height="360" fill="url(#bg)"/>
  <circle cx="520" cy="98" r="104" fill="#ffffff" opacity=".1"/>
  <circle cx="78" cy="288" r="116" fill="#000000" opacity=".18"/>
  <path d="M148 98h142c34 0 62 28 62 62v118H206c-32 0-58-26-58-58Z" fill="url(#book)"/>
  <path d="M492 98H352v180h146c32 0 58-26 58-58v-60c0-34-28-62-64-62Z" fill="#c9f4ff"/>
  <path d="M352 112v152" stroke="#0a465c" stroke-width="8" stroke-linecap="round"/>
  <path d="M190 152h104M190 190h86M190 228h114" stroke="#0a465c" stroke-width="16" stroke-linecap="round"/>
  <circle cx="446" cy="190" r="46" fill="#f16d6d"/>
  <path d="M424 190c18-38 52-38 70 0" fill="none" stroke="#fff6df" stroke-width="16" stroke-linecap="round"/>
  <path d="M434 168c-18-22-8-52 20-64" fill="none" stroke="#8cd867" stroke-width="12" stroke-linecap="round"/>
  <text x="412" y="308" fill="#ffffff" font-family="Inter, Arial, sans-serif" font-size="32" font-weight="700">RESEPTIT</text>
</svg>
