<svg xmlns="http://www.w3.org/2000/svg" viewBox="0 0 640 360" role="img" aria-labelledby="title desc">
  <title id="title">Viikon askareet</title>
  <desc id="desc">Checklist illustration for weekly chores.</desc>
  <defs>
    <linearGradient id="bg" x1="0" y1="0" x2="1" y2="1">
      <stop offset="0" stop-color="#133b28"/>
      <stop offset="1" stop-color="#03b7e5"/>
    </linearGradient>
  </defs>
  <rect width="640" height="360" fill="url(#bg)"/>
  <circle cx="524" cy="82" r="102" fill="#ffffff" opacity=".1"/>
  <circle cx="112" cy="312" r="124" fill="#000000" opacity=".18"/>
  <rect x="168" y="64" width="304" height="244" rx="30" fill="#f4fcff"/>
  <rect x="228" y="44" width="184" height="58" rx="18" fill="#0a5067"/>
  <rect x="272" y="32" width="96" height="28" rx="14" fill="#f4fcff"/>
  <g fill="none" stroke-linecap="round" stroke-linejoin="round">
    <path d="M220 146l22 22 42-48" stroke="#13a36f" stroke-width="18"/>
    <path d="M314 146h92" stroke="#0a5067" stroke-width="16"/>
    <path d="M220 214l22 22 42-48" stroke="#13a36f" stroke-width="18"/>
    <path d="M314 214h92" stroke="#0a5067" stroke-width="16"/>
  </g>
  <path d="M94 112c42 26 82 20 120-18" stroke="#ffffff" stroke-width="14" stroke-linecap="round" opacity=".75"/>
  <path d="M520 242c-32 20-68 18-108-6" stroke="#ffffff" stroke-width="14" stroke-linecap="round" opacity=".75"/>
  <text x="386" y="332" fill="#ffffff" font-family="Inter, Arial, sans-serif" font-size="30" font-weight="700">ASKAREET</text>
</svg>
