<svg xmlns="http://www.w3.org/2000/svg" viewBox="0 0 640 360" role="img" aria-labelledby="title desc">
  <title id="title">Viikon ruokalista</title>
  <desc id="desc">Calendar and plate illustration for weekly meal planning.</desc>
  <defs>
    <linearGradient id="bg" x1="0" y1="0" x2="1" y2="1">
      <stop offset="0" stop-color="#073547"/>
      <stop offset="1" stop-color="#03b7e5"/>
    </linearGradient>
    <linearGradient id="card" x1="0" y1="0" x2="1" y2="1">
      <stop offset="0" stop-color="#ffffff" stop-opacity=".95"/>
      <stop offset="1" stop-color="#d9f7ff" stop-opacity=".9"/>
    </linearGradient>
  </defs>
  <rect width="640" height="360" fill="url(#bg)"/>
  <circle cx="528" cy="76" r="96" fill="#ffffff" opacity=".12"/>
  <circle cx="104" cy="304" r="118" fill="#041016" opacity=".24"/>
  <rect x="104" y="72" width="244" height="228" rx="28" fill="url(#card)"/>
  <rect x="104" y="72" width="244" height="54" rx="28" fill="#f16d6d"/>
  <rect x="104" y="104" width="244" height="30" fill="#f16d6d"/>
  <g fill="#0b5066" opacity=".85">
    <rect x="136" y="154" width="40" height="34" rx="8"/>
    <rect x="194" y="154" width="40" height="34" rx="8"/>
    <rect x="252" y="154" width="40" height="34" rx="8"/>
    <rect x="136" y="206" width="40" height="34" rx="8"/>
    <rect x="194" y="206" width="40" height="34" rx="8"/>
    <rect x="252" y="206" width="40" height="34" rx="8"/>
  </g>
  <circle cx="456" cy="198" r="74" fill="#ffffff" opacity=".94"/>
  <circle cx="456" cy="198" r="44" fill="#d9f7ff"/>
  <path d="M454 125v146" stroke="#083444" stroke-width="16" stroke-linecap="round"/>
  <path d="M396 192h120" stroke="#083444" stroke-width="14" stroke-linecap="round"/>
  <text x="398" y="308" fill="#ffffff" font-family="Inter, Arial, sans-serif" font-size="32" font-weight="700">VIIKKO</text>
</svg>
